<?xml version="1.0" encoding="utf-8"?>
<!-- Generator: Adobe Illustrator 24.3.0, SVG Export Plug-In . SVG Version: 6.00 Build 0)  -->
<svg version="1.1" id="Camada_1" xmlns="http://www.w3.org/2000/svg" xmlns:xlink="http://www.w3.org/1999/xlink" x="0px" y="0px"
	 viewBox="0 0 272.1 420.2" style="enable-background:new 0 0 272.1 420.2;" xml:space="preserve">
<style type="text/css">
	.st0{fill:#FFFFFF;}
</style>
<path class="st0" d="M260.7,160H11.3C5,160,0,151.9,0,142s5.1-18,11.3-18h249.5c6.3,0,11.3,8.1,11.3,18S267,160,260.7,160z"/>
<path class="st0" d="M260.7,98H11.3C5,98,0,89.9,0,80s5.1-18,11.3-18h249.5c6.3,0,11.3,8.1,11.3,18S267,98,260.7,98z"/>
<path class="st0" d="M260.7,36H11.3C5,36,0,27.9,0,18S5.1,0,11.3,0h249.5c6.3,0,11.3,8.1,11.3,18S267,36,260.7,36z"/>
</svg>
